<svg xmlns="http://www.w3.org/2000/svg" width="210" height="150" viewBox="0 0 2100 1500">
  <defs>
    <style>
      .cls-1 {
        fill: #85ced4;
        stroke: #000;
        stroke-width: 0.833px;
        fill-rule: evenodd;
      }
    </style>
  </defs>
  <path class="cls-1" d="M1099,1339c-19.82-7.05,147.42,92.01,89-219s-75.32-399.453-86-452-50.32-121.074-61-95-5.15,48.09-4,97-11.54,354.82-11,446C1026.18,1344.88,1118.82,1346.05,1099,1339Z"/>
  <path class="cls-1" d="M821,226s-24.348,379.84,224,413,220-333.363,210-401-60.54,350.184-103,286-67.36-106.033-84-253c-42.51-174.1-33.75,245.543-103,240S825.922,244.551,821,226Z"/>
</svg>
